<?xml version="1.0" encoding="utf-8"?>
<!-- Generator: Adobe Illustrator 23.0.6, SVG Export Plug-In . SVG Version: 6.00 Build 0)  -->
<svg version="1.1" id="Layer_1" xmlns="http://www.w3.org/2000/svg" xmlns:xlink="http://www.w3.org/1999/xlink" x="0px" y="0px"
	 viewBox="0 0 24 24" style="enable-background:new 0 0 24 24;" xml:space="preserve">
<style type="text/css">
	.st0{fill:#0D47A1;}
	.st1{fill:none;}
	.st2{fill:#0D47A1;stroke:#0D47A1;stroke-width:6;stroke-miterlimit:10;}
	.st3{stroke:#FFFFFF;stroke-width:10;stroke-miterlimit:10;}
</style>
<path class="st0" d="M19,9h-4V3H9v6H5l7,7L19,9z M5,18v1.5h14V18H5z"/>
<path class="st1" d="M0,0h24v24H0V0z"/>
<path class="st2" d="M-67.3-68.4c0,0.1,0,0.2,0,0.3c0,0,0,0,0,0c-0.1,1-0.3,2-0.5,3c-0.3,1.7-0.6,3.4-0.9,5.1
	c-0.3,1.7-0.6,3.5-1,5.2c-0.2,1.2-0.4,2.4-0.7,3.7c-0.1,0.5-0.3,0.9-0.7,1.2c-0.1,0.1-0.3,0.2-0.4,0.3c-0.1,0-0.2,0.1-0.3,0.1
	c-2.9,0-5.8,0-8.7,0c-5.3,0-10.6,0-15.9,0c-0.1,0-0.1,0-0.2,0c-0.5-0.2-1-0.5-1.3-0.9c-0.1-0.2-0.2-0.5-0.2-0.8c0-2.9,0-5.9,0-8.8
	c0-4.7,0-9.4,0-14.2c0-0.8,0.5-1.3,1.1-1.7c0.1,0,0.2-0.1,0.3-0.1c2.4-0.1,4.7,0,7.1,0c0.5,0,0.8,0.2,1.1,0.5
	c0.1,0.1,0.1,0.2,0.2,0.2c0.4,0.5,0.7,1.1,1.1,1.6c0.1,0.1,0.1,0.1,0.2,0.1c3.9,0,7.9,0,11.8,0c1.4,0,2.8,0,4.2,0
	c0.4,0,0.7,0.1,1,0.4c0.4,0.4,0.7,0.8,0.7,1.4c0,0.5,0,1.1,0,1.6c0,0.2,0,0.2,0.2,0.3c0.7,0.1,1.2,0.5,1.5,1.1
	C-67.4-68.6-67.3-68.5-67.3-68.4z M-81.1-68.6C-81.1-68.6-81.1-68.6-81.1-68.6c-2.9,0-5.9,0-8.8,0c-1.1,0-2.2,0-3.3,0
	c-0.3,0-0.4,0.1-0.5,0.4c-0.3,1.5-0.6,3.1-0.9,4.6c-0.4,1.9-0.7,3.7-1.1,5.6c-0.3,1.7-0.6,3.5-1,5.2c-0.1,0.4-0.2,0.9-0.2,1.3
	c0,0.3,0.1,0.5,0.4,0.6c0.1,0,0.2,0,0.4,0c1.5,0.1,3.1,0.1,4.6,0.1c5.6,0,11.3,0,16.9,0c0.8,0,1.6,0,2.4-0.1c0.4,0,0.4-0.1,0.5-0.4
	c0.3-1.6,0.6-3.2,0.9-4.8c0.3-1.7,0.6-3.4,1-5.2c0.3-1.7,0.6-3.4,0.9-5.1c0.1-0.6,0.2-1.2,0.3-1.7c0-0.3-0.2-0.6-0.5-0.6
	C-73.1-68.6-77.1-68.6-81.1-68.6z M-96.9-58.5C-96.8-58.5-96.8-58.5-96.9-58.5c0.4-1.7,0.7-3.4,1-5.1c0.3-1.6,0.6-3.2,0.9-4.8
	c0.1-0.7,0.5-1.2,1.1-1.4c0.1-0.1,0.2-0.1,0.4-0.1c2,0,3.9,0,5.9,0c4.4,0,8.8,0,13.2,0c1.3,0,2.6,0,3.8,0c0.1,0,0.2,0,0.2-0.2
	c0-0.3,0-0.7,0-1c0-0.3,0-0.5-0.1-0.8c-0.1-0.3-0.2-0.4-0.5-0.4c-0.3,0-0.7,0-1,0c-3,0-6,0-9,0c-2.1,0-4.2,0-6.3,0
	c-0.1,0-0.2,0-0.2-0.1c-0.3-0.2-0.6-0.5-0.8-0.8c-0.3-0.5-0.6-1-1-1.4c-0.1-0.1-0.2-0.1-0.3-0.1c-0.8,0-1.6,0-2.5,0
	c-1.3,0-2.6,0-4,0c-0.3,0-0.6,0.1-0.8,0.3c0,0.1-0.1,0.1-0.1,0.2c0,5.1,0,10.2,0,15.3C-96.8-58.8-96.9-58.7-96.9-58.5z"/>
<circle class="st0" cx="-72.1" cy="-54.7" r="8.4"/>
<g>
	<line class="st3" x1="-72.1" y1="-59.3" x2="-72.1" y2="-49.7"/>
	<line class="st3" x1="-76.8" y1="-54.8" x2="-67.4" y2="-54.8"/>
</g>
</svg>
