<?xml version="1.0" encoding="utf-8"?>
<!-- Generator: Adobe Illustrator 23.0.6, SVG Export Plug-In . SVG Version: 6.00 Build 0)  -->
<svg version="1.1" id="Layer_1" xmlns="http://www.w3.org/2000/svg" xmlns:xlink="http://www.w3.org/1999/xlink" x="0px" y="0px"
	 viewBox="0 0 24 24" style="enable-background:new 0 0 24 24;" xml:space="preserve">
<style type="text/css">
	.st0{fill:#114AA2;}
	.st1{fill:#FAFBFC;}
</style>
<g>
	<path class="st0" d="M1.8,11.2c0-2.3,0-4.5,0-6.8c0-0.9,0.5-1.4,1.5-1.5c1.2,0,2.4,0,3.6,0c0.8,0,1.3,0.2,1.6,0.9
		c0.2,0.5,0.6,0.6,1.1,0.6c2.7,0,5.4,0,8,0c0.1,0,0.3,0,0.4,0c1.3,0.1,1.7,0.5,1.7,1.8c0,0.3,0.1,0.5,0.4,0.6
		c0.6,0.3,0.8,0.8,0.7,1.5c-0.2,1-0.4,2-0.5,3c-0.1,0.3,0,0.5,0.3,0.6c2.4,1.7,2.9,5,1,7.3c-1.8,2.3-5.2,2.5-7.4,0.5
		c-0.2-0.2-0.4-0.3-0.7-0.3c-3.4,0-6.7,0-10.1,0c-1.1,0-1.6-0.5-1.6-1.6C1.8,15.6,1.8,13.4,1.8,11.2z M13.1,18.1
		c-0.6-1.7-0.6-3.3,0.4-4.8c1.2-1.8,2.9-2.5,5.1-2.2c0.3,0,0.5,0,0.5-0.3c0.1-0.7,0.3-1.5,0.4-2.2C19.6,8,19.6,8,19,8
		c-4.5,0-9,0-13.5,0C5.1,8,5,8.1,5,8.5S4.9,9.2,4.8,9.6c-0.5,2.7-1,5.4-1.5,8.1c-0.1,0.3,0,0.5,0.4,0.5c1,0,1.9,0,2.9,0
		C8.7,18.1,10.9,18.1,13.1,18.1z M3.1,10.3C3.2,10.3,3.2,10.3,3.1,10.3c0.2-0.6,0.3-1.2,0.4-1.8C3.8,6.8,4,6.7,5.8,6.7
		c4,0,8.1,0,12.1,0c0.4,0,0.5-0.1,0.5-0.5s-0.2-0.4-0.5-0.4c-2.9,0-5.9,0-8.8,0C8.5,5.7,8,5.5,7.7,5C7.6,4.8,7.5,4.7,7.4,4.6
		C7.3,4.3,7.1,4.2,6.8,4.2c-1.1,0-2.2,0-3.3,0C3.2,4.2,3,4.3,3.1,4.6C3.2,6.5,3.1,8.4,3.1,10.3z M18.2,17.7c0-0.3,0-0.7,0-1
		c0-0.2,0.1-0.3,0.3-0.3c0.6,0,1.1,0,1.7,0c0.5,0,0.4-0.3,0.4-0.5c0-0.3,0-0.5-0.4-0.5c-0.5,0-1,0-1.4,0s-0.6-0.1-0.6-0.5
		s0-0.8,0-1.2s-0.1-0.5-0.5-0.5c-0.3,0-0.6,0-0.5,0.5c0,0.5,0,0.9,0,1.4c0,0.3-0.1,0.4-0.4,0.4c-0.5,0-1.1,0-1.6,0s-0.4,0.2-0.4,0.5
		s0,0.5,0.4,0.5c0.5,0,1.1,0,1.6,0c0.3,0,0.4,0.1,0.4,0.4c0,0.6,0,1.3,0,1.9c0,0.4,0.3,0.4,0.5,0.4c0.3,0,0.5,0.1,0.5-0.4
		C18.2,18.4,18.2,18.1,18.2,17.7z"/>
	<path class="st1" d="M3.1,10.3c0-1.9,0-3.7,0-5.6c0-0.3,0.1-0.4,0.4-0.4c1.1,0,2.2,0,3.3,0c0.3,0,0.4,0.1,0.6,0.3
		C7.5,4.7,7.6,4.8,7.7,5C8,5.5,8.5,5.7,9.2,5.7c2.9,0,5.9,0,8.8,0c0.3,0,0.5,0,0.5,0.4S18.4,6.6,18,6.6c-4,0-8.1,0-12.1,0
		C4.2,6.6,4,6.8,3.6,8.4C3.5,9.1,3.4,9.7,3.1,10.3C3.2,10.3,3.2,10.3,3.1,10.3z"/>
</g>
</svg>
